HIERARCHY
ROOT Bip001_Pelvis
{
  OFFSET 34.4345 95.6767 -26.8758
  CHANNELS 6 Xposition Yposition Zposition Zrotation Xrotation Yrotation
  JOINT Bip001_Spine
  {
    OFFSET 1.4188e-005 10.2191 -0.0116013
    CHANNELS 3 Zrotation Xrotation Yrotation
    JOINT Bip001_L_Thigh
    {
      OFFSET 11.0458 -10.2192 0.0116197
      CHANNELS 3 Zrotation Xrotation Yrotation
      JOINT Bip001_L_Calf
      {
        OFFSET -0.707118 -44.0221 0.360014
        CHANNELS 3 Zrotation Xrotation Yrotation
        JOINT Bip001_L_Foot
        {
          OFFSET -0.651902 -40.5938 -3.56146
          CHANNELS 3 Zrotation Xrotation Yrotation
          JOINT Bip001_L_Toe0
          {
            OFFSET 0.0530839 -10.2181 13.1504
            CHANNELS 3 Zrotation Xrotation Yrotation
            End Site
            {
              OFFSET -1.02532e-005 0 7.55606
            }
          }
        }
      }
    }
    JOINT Bip001_R_Thigh
    {
      OFFSET -11.0458 -10.2191 0.0115893
      CHANNELS 3 Zrotation Xrotation Yrotation
      JOINT Bip001_R_Calf
      {
        OFFSET 0.706994 -44.0221 0.35984
        CHANNELS 3 Zrotation Xrotation Yrotation
        JOINT Bip001_R_Foot
        {
          OFFSET 0.651786 -40.5938 -3.5613
          CHANNELS 3 Zrotation Xrotation Yrotation
          JOINT Bip001_R_Toe0
          {
            OFFSET -0.0531479 -10.2181 13.1504
            CHANNELS 3 Zrotation Xrotation Yrotation
            End Site
            {
              OFFSET -1.02894e-005 0 7.55606
            }
          }
        }
      }
    }
    JOINT Bip001_Spine1
    {
      OFFSET 1.87041e-005 14.5736 1.08638
      CHANNELS 3 Zrotation Xrotation Yrotation
      JOINT Bip001_Spine2
      {
        OFFSET 2.24614e-005 14.5058 -1.69078
        CHANNELS 3 Zrotation Xrotation Yrotation
        JOINT Bip001_Neck
        {
          OFFSET 2.20278e-005 15.3945 -0.489414
          CHANNELS 3 Zrotation Xrotation Yrotation
          JOINT Bip001_L_Clavicle
          {
            OFFSET 6.06036 -0.000579998 0.00836775
            CHANNELS 3 Zrotation Xrotation Yrotation
            JOINT Bip001_L_UpperArm
            {
              OFFSET 11.5509 -0.0600302 0.00193952
              CHANNELS 3 Zrotation Xrotation Yrotation
              JOINT Bip001_L_Forearm
              {
                OFFSET 25.9523 0.0806089 -2.15551
                CHANNELS 3 Zrotation Xrotation Yrotation
                JOINT Bip001_L_Hand
                {
                  OFFSET 32.2475 0.153767 1.63968
                  CHANNELS 3 Zrotation Xrotation Yrotation
                  JOINT Bip001_L_Finger0
                  {
                    OFFSET 6.04639 -2.20976 5.90322
                    CHANNELS 3 Zrotation Xrotation Yrotation
                    End Site
                    {
                      OFFSET 4.22375 -1.43895 0.606485
                    }
                  }
                  JOINT Bip001_L_Finger1
                  {
                    OFFSET 11.0826 -0.704819 -0.198153
                    CHANNELS 3 Zrotation Xrotation Yrotation
                    End Site
                    {
                      OFFSET 6.20027 -0.397518 -0.0787166
                    }
                  }
                }
              }
            }
          }
          JOINT Bip001_R_Clavicle
          {
            OFFSET -6.06037 -0.000563197 0.00835105
            CHANNELS 3 Zrotation Xrotation Yrotation
            JOINT Bip001_R_UpperArm
            {
              OFFSET -11.5509 -0.0599978 0.00190698
              CHANNELS 3 Zrotation Xrotation Yrotation
              JOINT Bip001_R_Forearm
              {
                OFFSET -25.9523 0.0806822 -2.15589
                CHANNELS 3 Zrotation Xrotation Yrotation
                JOINT Bip001_R_Hand
                {
                  OFFSET -32.2475 0.153859 1.63989
                  CHANNELS 3 Zrotation Xrotation Yrotation
                  JOINT Bip001_R_Finger0
                  {
                    OFFSET -6.04641 -2.20976 5.90317
                    CHANNELS 3 Zrotation Xrotation Yrotation
                    End Site
                    {
                      OFFSET -4.22376 -1.43895 0.60647
                    }
                  }
                  JOINT Bip001_R_Finger1
                  {
                    OFFSET -11.0826 -0.704794 -0.198182
                    CHANNELS 3 Zrotation Xrotation Yrotation
                    End Site
                    {
                      OFFSET -6.20028 -0.397504 -0.0787333
                    }
                  }
                }
              }
            }
          }
          JOINT Bip001_Head
          {
            OFFSET 1.09673e-005 11.2744 2.05948
            CHANNELS 3 Zrotation Xrotation Yrotation
            End Site
            {
              OFFSET 2.89576e-005 20.8808 -2.77728e-005
            }
          }
        }
      }
    }
  }
}
MOTION
Frames:	5
Frame Time:	0.04
37.2951 95.2313 -33.1659 -0.692004 -6.87737 -7.86227 0.591137 3.17806 -1.07966 3.54988 0.167267 11.3381 -1.58336 12.8179 -0.192337 8.76264 -3.6878 -0.142673 1.94168 -8.72865 -0.0680269 -7.33034 -3.37371 -0.550979 -1.73052 13.7966 2.1908 -4.70781 -7.17331 2.9712 3.63165 -11.9953 4.20101 1.23764 6.33959 -2.19695 1.23764 6.33961 -2.19695 3.76604 -6.02757 0.53561 -23.4784 8.9249 -6.75187 -41.7578 33.5298 -9.35616 10.2878 -11.0916 -27.2834 13.2163 0.136993 -3.729 -1.27222e-014 1.59028e-015 6.36111e-015 -9.54166e-015 1.59028e-015 3.18055e-015 21.059 13.2615 19.0306 57.2665 36.5434 -10.139 -29.7917 10.7242 24.7497 7.06965 -5.96474 2.60146 1.59028e-015 3.18055e-015 -0 3.18055e-015 3.18056e-015 -0 -0.00474599 -0.443891 1.4395 
37.2496 95.2297 -33.2597 -0.325956 -6.53895 -8.47703 0.608371 3.19685 -1.16624 2.98582 0.00497732 10.2745 -1.5989 12.2182 1.60924 8.81342 -3.15723 -0.18553 1.96601 -8.72482 -0.0890308 -7.6955 -4.3247 0.764981 -1.37247 14.4525 1.9655 -4.80141 -7.34358 2.49262 3.56148 -11.8217 4.16726 1.2849 6.38039 -2.37201 1.2849 6.38039 -2.37201 3.78642 -5.61654 1.38349 -23.1148 8.89701 -7.88568 -41.1499 33.7722 -11.5075 10.249 -11.1989 -27.8969 13.7052 0.167204 -4.39035 1.05934e-030 -9.54166e-015 6.36111e-015 3.18055e-015 -7.95139e-015 6.36111e-015 21.6069 12.6295 18.2877 60.9257 38.9048 -11.1484 -24.8471 13.1853 15.026 12.8675 -4.86969 3.10495 5.96354e-016 3.18055e-015 -1.98785e-016 5.96354e-016 3.18056e-015 -1.98785e-016 -0.615152 -0.239474 2.41457 
37.1743 95.2234 -33.2998 -0.145754 -6.2577 -8.78991 0.651621 3.20634 -1.25557 2.69046 -0.187375 11.8666 -1.13238 12.0094 0.336694 9.18367 -2.7532 -0.235239 1.88847 -8.92213 0.0150402 -7.85187 -4.86792 1.1667 -1.27008 14.7149 1.96293 -4.84317 -7.5039 2.44681 3.54027 -11.7583 4.13571 1.37887 6.39747 -2.55364 1.37681 6.39778 -2.55365 4.25283 -5.07254 2.01704 -23.2821 8.76137 -9.18841 -41.203 33.6343 -12.5686 10.7124 -10.0768 -28.9304 13.4001 0.118039 -5.24073 -3.18055e-015 -4.77083e-015 1.59028e-015 8.82782e-032 -3.18056e-015 1.59028e-015 21.4283 11.7146 17.065 63.3203 38.0331 -11.951 -20.0608 15.3428 10.0363 12.7644 -4.14893 2.57595 -0 0 7.95139e-016 7.95139e-016 -3.18056e-015 3.97569e-016 -1.68804 -0.519387 3.39892 
37.0701 95.2015 -33.3127 -0.0666473 -5.88584 -8.8633 0.679107 3.19151 -1.42199 2.76854 -0.629898 12.2302 -1.11675 12.2738 0.408267 8.61994 -3.20301 -0.18254 1.91072 -8.69553 -0.0728868 -7.82274 -5.38694 1.6607 -1.1461 14.9648 2.03756 -5.02266 -7.59534 2.09466 3.55273 -11.7921 4.14686 1.43827 6.36185 -2.88851 1.43836 6.3615 -2.88851 4.5239 -4.73983 2.66857 -23.278 8.71399 -9.99033 -41.8059 33.8745 -12.8465 11.7797 -8.36549 -30.1856 12.7141 -0.194796 -6.40891 1.59028e-014 1.59028e-015 -4.77083e-015 1.27222e-014 1.59028e-015 -4.77083e-015 21.7765 11.131 16.1575 64.8471 35.556 -13.6396 -18.1482 16.5865 8.70123 12.3838 -4.39195 2.69367 1.59028e-015 9.54166e-015 -0 1.59028e-015 6.36111e-015 7.95139e-016 -2.11773 -0.730135 4.2056 
36.9822 95.1809 -33.2552 -0.0325008 -5.59508 -9.02783 0.690727 3.19299 -1.59698 2.80019 -0.847463 12.5682 -1.10945 12.2757 0.525384 8.85486 -3.04954 -0.200504 2.26585 -8.98514 -0.427153 -7.71977 -5.81832 2.46309 -1.0284 15.2388 2.01593 -5.23246 -7.6859 1.65154 3.52623 -11.7128 4.11464 1.47413 6.35226 -3.24008 1.47461 6.35225 -3.24008 5.09621 -4.59806 3.33963 -23.536 8.78636 -10.4744 -42.8438 34.631 -12.5788 13.1549 -6.64938 -31.5458 11.7837 -0.795386 -7.39141 -3.18055e-015 -7.95139e-016 4.77083e-015 3.18055e-015 -7.95139e-016 3.18055e-015 21.2944 10.5137 14.7674 66.3739 33.3376 -15.5702 -18.8558 16.7982 9.1068 11.6593 -5.09514 3.44893 -1.59028e-015 -3.18055e-015 3.18055e-015 -1.59028e-015 3.18056e-015 2.38542e-015 -2.90124 -0.748165 5.17944 
